<svg width="668" height="667" viewBox="0 0 668 667" fill="none" xmlns="http://www.w3.org/2000/svg">
<path d="M667.347 0.147369V666.842H450.505C432.653 666.842 427.053 656.821 427.053 647.684C427.053 636.484 427.474 599.642 427.474 553.958C428.334 542.369 426.705 530.729 422.696 519.822C418.688 508.914 412.392 498.99 404.232 490.716C480.358 482.211 560.274 453.368 560.274 322.084C560.791 288.151 548.215 255.323 525.158 230.421C535.577 200.953 534.357 168.62 521.747 140.021C521.747 140.021 493.116 130.842 427.853 175.053C371.861 159.703 312.771 159.703 256.779 175.053C191.516 130.842 162.884 140.021 162.884 140.021C150.305 168.629 149.101 200.956 159.516 230.421C136.474 255.335 123.887 288.151 124.358 322.084C124.358 453.032 204.105 482.337 279.979 490.968C267.542 503.117 259.84 519.298 258.253 536.61C249.876 541.332 240.645 544.344 231.095 545.472C221.546 546.6 211.867 545.822 202.621 543.182C193.374 540.542 184.743 536.094 177.228 530.094C169.714 524.095 163.464 516.664 158.842 508.232C153.371 498.769 145.813 490.68 136.744 484.58C127.674 478.48 117.332 474.53 106.505 473.032C106.505 473.032 73.1157 472.61 104.147 493.832C122.344 505.429 135.787 523.159 142.042 543.811C142.042 543.811 162.168 610.253 257.2 589.621C257.368 618.084 257.621 639.558 257.621 647.726C257.621 656.737 251.432 666.842 234.337 666.842H0.652588V0.147369H667.347Z" fill="#00FF00"/>
</svg>
