<svg width="800" height="790" viewBox="0 0 800 790" fill="none" xmlns="http://www.w3.org/2000/svg">
<rect width="800" height="800" fill="#00FF00"/>
<path d="M97.1666 383.6C306.633 291.45 577.7 179.1 615.117 163.55C713.267 122.85 743.383 130.65 728.367 220.783C717.583 285.567 686.467 500.05 661.667 633.55C646.95 712.717 613.933 722.1 562.017 687.85C537.05 671.367 411.033 588.033 383.683 568.467C358.717 550.633 324.283 529.183 367.467 486.933C382.833 471.883 483.567 375.7 562.05 300.833C572.333 291 559.417 274.85 547.55 282.733C441.767 352.883 295.1 450.25 276.433 462.933C248.233 482.083 221.15 490.867 172.533 476.9C135.8 466.35 99.9167 453.767 85.95 448.967C32.1667 430.5 44.9333 406.583 97.1666 383.6Z" fill="black"/>
</svg>
